<svg xmlns="http://www.w3.org/2000/svg" xmlns:xlink="http://www.w3.org/1999/xlink" width="380pt" height="439pt" viewBox="0.00 0.00 380.00 439.26">
<g id="graph0" class="graph" transform="scale(1 1) rotate(0) translate(4 435.26)">
<title>G</title>
<polygon fill="white" stroke="none" points="-4,4 -4,-435.26 376,-435.26 376,4 -4,4"/>
<g id="clust1" class="cluster">
<title>cluster0</title>
</g>
<g id="clust2" class="cluster">
<title>cluster1</title>
<polygon fill="none" stroke="black" stroke-dasharray="5,2" points="51,-273.06 51,-352.26 304,-352.26 304,-273.06 51,-273.06"/>
<text text-anchor="middle" x="99.88" y="-333.86" font-family="Helvetica,sans-Serif" font-weight="bold" font-size="16.00">Applications</text>
</g>
<g id="clust3" class="cluster">
<title>cluster2</title>
<polygon fill="none" stroke="black" stroke-dasharray="5,2" points="8,-129.03 8,-231.06 364,-231.06 364,-129.03 8,-129.03"/>
<text text-anchor="middle" x="41.34" y="-212.66" font-family="Helvetica,sans-Serif" font-weight="bold" font-size="16.00">Outputs</text>
</g>
<g id="clust4" class="cluster">
<title>cluster3</title>
<polygon fill="none" stroke="black" stroke-dasharray="5,2" points="192,-8 192,-110.03 334,-110.03 334,-8 192,-8"/>
<text text-anchor="middle" x="242.66" y="-91.63" font-family="Helvetica,sans-Serif" font-weight="bold" font-size="16.00">Visualization</text>
</g>
<!-- s3 -->
<g id="node1" class="node">
<title>s3</title>
<ellipse fill="lightgrey" stroke="lightgrey" cx="200" cy="-397.26" rx="51" ry="18"/>
<text text-anchor="middle" x="200" y="-393.06" font-family="Times,serif" font-size="14.00">S3 Bucket</text>
</g>
<!-- planner -->
<g id="node2" class="node">
<title>planner</title>
<polygon fill="red" stroke="red" points="117.38,-317.06 58.62,-317.06 58.62,-281.06 117.38,-281.06 117.38,-317.06"/>
<text text-anchor="middle" x="88" y="-294.86" font-family="Times,serif" font-size="14.00">Planner</text>
</g>
<!-- s3&#45;&gt;planner -->
<g id="edge1" class="edge">
<title>s3-&gt;planner</title>
<path fill="none" stroke="black" d="M170.4,-382.24C156.06,-374.59 139.15,-364.24 126,-352.26 117.93,-344.91 110.51,-335.6 104.4,-326.89"/>
<polygon fill="black" stroke="black" points="107.4,-325.08 98.94,-318.7 101.57,-328.96 107.4,-325.08"/>
</g>
<!-- appender -->
<g id="node3" class="node">
<title>appender</title>
<polygon fill="blue" stroke="blue" points="206.6,-317.06 135.4,-317.06 135.4,-281.06 206.6,-281.06 206.6,-317.06"/>
<text text-anchor="middle" x="171" y="-294.86" font-family="Times,serif" font-size="14.00">Appender</text>
</g>
<!-- s3&#45;&gt;appender -->
<!-- simulator -->
<g id="node4" class="node">
<title>simulator</title>
<polygon fill="green" stroke="green" points="295.61,-317.06 224.39,-317.06 224.39,-281.06 295.61,-281.06 295.61,-317.06"/>
<text text-anchor="middle" x="260" y="-294.86" font-family="Times,serif" font-size="14.00">Simulator</text>
</g>
<!-- s3&#45;&gt;simulator -->
<!-- sc_geojson -->
<g id="node5" class="node">
<title>sc_geojson</title>
<ellipse fill="lightgrey" stroke="lightgrey" cx="84" cy="-166.45" rx="67.67" ry="29.42"/>
<text text-anchor="middle" x="84" y="-170.65" font-family="Times,serif" font-size="14.00">Selected Cells</text>
<text text-anchor="middle" x="84" y="-153.85" font-family="Times,serif" font-size="14.00">GeoJSON</text>
</g>
<!-- planner&#45;&gt;sc_geojson -->
<g id="edge4" class="edge">
<title>planner-&gt;sc_geojson</title>
<path fill="none" stroke="black" d="M87.47,-280.72C86.9,-262.17 85.98,-232.12 85.23,-207.63"/>
<polygon fill="black" stroke="black" points="88.73,-207.53 84.92,-197.65 81.73,-207.75 88.73,-207.53"/>
<text text-anchor="middle" x="98.31" y="-248.06" font-family="Times,serif" font-size="10.00">Write</text>
</g>
<!-- ag_geojson -->
<g id="node6" class="node">
<title>ag_geojson</title>
<ellipse fill="lightgrey" stroke="lightgrey" cx="263" cy="-166.45" rx="93.5" ry="29.42"/>
<text text-anchor="middle" x="263" y="-170.65" font-family="Times,serif" font-size="14.00">Aggregated Selected</text>
<text text-anchor="middle" x="263" y="-153.85" font-family="Times,serif" font-size="14.00">Cells GeoJSON</text>
</g>
<!-- appender&#45;&gt;ag_geojson -->
<g id="edge5" class="edge">
<title>appender-&gt;ag_geojson</title>
<path fill="none" stroke="black" d="M183.22,-280.72C196.83,-261.4 219.23,-229.59 236.83,-204.6"/>
<polygon fill="black" stroke="black" points="239.55,-206.82 242.45,-196.63 233.83,-202.79 239.55,-206.82"/>
<text text-anchor="middle" x="222.87" y="-248.06" font-family="Times,serif" font-size="10.00">Write</text>
</g>
<!-- simulator&#45;&gt;ag_geojson -->
<g id="edge6" class="edge">
<title>simulator-&gt;ag_geojson</title>
<path fill="none" stroke="red" stroke-dasharray="5,2" d="M260.4,-280.72C260.82,-262.17 261.51,-232.12 262.08,-207.63"/>
<polygon fill="red" stroke="red" points="265.58,-207.72 262.31,-197.65 258.58,-207.56 265.58,-207.72"/>
<text text-anchor="middle" x="277.15" y="-254.06" font-family="Times,serif" font-size="10.00" fill="red">Append</text>
<text text-anchor="middle" x="277.15" y="-242.06" font-family="Times,serif" font-size="10.00" fill="red">Results</text>
</g>
<!-- ag_geojson&#45;&gt;s3 -->
<g id="edge7" class="edge">
<title>ag_geojson-&gt;s3</title>
<path fill="none" stroke="red" stroke-dasharray="5,2" d="M282.53,-195.53C306.62,-233.98 340.62,-303.76 308,-352.26 296.42,-369.48 276.81,-379.96 257.46,-386.34"/>
<polygon fill="red" stroke="red" points="256.53,-382.97 247.92,-389.14 258.5,-389.68 256.53,-382.97"/>
<text text-anchor="middle" x="336.15" y="-296.06" font-family="Times,serif" font-size="10.00" fill="red">Upload</text>
</g>
<!-- cesium -->
<g id="node7" class="node">
<title>cesium</title>
<ellipse fill="lightgrey" stroke="lightgrey" cx="263" cy="-45.42" rx="62.73" ry="29.42"/>
<text text-anchor="middle" x="263" y="-49.62" font-family="Times,serif" font-size="14.00">Cesium Web</text>
<text text-anchor="middle" x="263" y="-32.82" font-family="Times,serif" font-size="14.00">Application</text>
</g>
<!-- ag_geojson&#45;&gt;cesium -->
<g id="edge8" class="edge">
<title>ag_geojson-&gt;cesium</title>
<path fill="none" stroke="black" d="M263,-136.63C263,-121.57 263,-102.9 263,-86.46"/>
<polygon fill="black" stroke="black" points="266.5,-86.48 263,-76.48 259.5,-86.48 266.5,-86.48"/>
</g>
</g>
</svg>